<?xml version="1.0" standalone="no"?>
<!DOCTYPE svg PUBLIC "-//W3C//DTD SVG 20010904//EN"
 "http://www.w3.org/TR/2001/REC-SVG-20010904/DTD/svg10.dtd">
<svg version="1.0" xmlns="http://www.w3.org/2000/svg"
 width="1024.000000pt" height="1024.000000pt" viewBox="0 0 1024.000000 1024.000000"
 preserveAspectRatio="xMidYMid meet">

<g transform="translate(0.000000,1024.000000) scale(0.100000,-0.100000)"
fill="#000000" stroke="none">
<path d="M4985 8831 c-33 -9 -76 -25 -95 -35 -116 -60 -223 -185 -261 -305
-28 -89 -29 -232 -1 -318 l19 -61 -22 -10 c-12 -6 -207 -121 -434 -257 l-411
-246 -58 49 c-108 93 -212 132 -358 132 -283 0 -504 -226 -504 -517 0 -242
145 -434 378 -499 l62 -17 0 -286 0 -286 -49 -12 c-229 -54 -391 -267 -391
-512 0 -221 124 -401 330 -479 30 -12 67 -24 83 -27 l27 -5 0 -303 0 -303 -72
-21 c-331 -98 -474 -499 -282 -790 105 -157 311 -250 494 -222 85 13 156 38
215 78 22 15 45 30 52 34 11 7 40 -29 403 -498 290 -375 362 -468 574 -745
124 -162 226 -298 226 -302 0 -4 -22 -19 -48 -32 -65 -33 -164 -140 -201 -218
-39 -82 -50 -135 -51 -229 0 -140 54 -265 158 -360 104 -95 214 -139 352 -139
315 0 559 275 511 578 -23 150 -125 299 -251 366 -30 16 -56 30 -58 32 -2 1
57 81 132 178 166 215 379 491 467 606 37 47 175 227 308 400 132 173 252 328
264 345 l24 30 37 -28 c59 -46 161 -87 238 -97 271 -34 536 166 579 438 27
163 -28 333 -144 446 -66 65 -179 128 -250 140 l-37 7 2 306 3 306 54 14 c83
21 149 61 227 138 125 123 171 263 146 438 -30 205 -184 377 -384 427 l-48 12
0 288 0 288 48 12 c137 34 274 145 336 271 145 295 -6 637 -324 733 -78 24
-220 22 -295 -4 -76 -26 -139 -64 -195 -116 l-46 -43 -35 21 c-63 39 -703 414
-771 452 l-66 37 20 57 c28 80 34 191 14 276 -68 287 -366 467 -641 387z m290
-170 c78 -36 144 -101 182 -179 25 -50 28 -68 28 -152 0 -87 -3 -101 -32 -161
-103 -210 -364 -273 -552 -134 -183 135 -199 402 -34 557 87 81 163 110 271
104 54 -3 90 -12 137 -35z m-501 -718 c58 -52 175 -112 236 -120 l40 -6 0
-208 0 -209 -584 0 -584 0 -11 31 c-6 18 -11 35 -11 40 0 4 69 48 153 98 83
50 276 164 427 255 151 91 277 165 279 166 1 0 26 -21 55 -47z m810 8 c34 -21
149 -89 256 -151 107 -62 254 -148 325 -190 72 -42 151 -89 177 -103 l46 -27
-15 -40 -16 -40 -584 0 -583 0 2 206 3 207 55 14 c82 20 154 59 213 113 28 27
54 49 56 50 3 0 32 -17 65 -39z m-2052 -353 c112 -52 194 -160 218 -288 27
-144 -68 -313 -217 -382 -58 -27 -77 -31 -152 -31 -120 0 -186 27 -267 107
-78 78 -107 148 -107 256 1 159 85 285 231 347 80 33 210 29 294 -9z m3485 -2
c76 -34 143 -103 181 -184 23 -49 27 -70 27 -152 0 -84 -3 -102 -28 -152 -39
-79 -104 -143 -184 -180 -56 -27 -77 -31 -152 -32 -78 -1 -93 2 -153 32 -144
71 -228 211 -215 362 12 146 110 274 247 324 71 26 199 17 277 -18z m-1969
-1088 l-3 -743 -207 -3 -207 -2 -265 347 c-145 192 -343 449 -438 573 l-174
225 37 45 c48 58 77 125 97 222 l17 78 572 0 573 0 -2 -742z m1305 660 c17
-88 64 -193 103 -229 13 -12 24 -27 24 -32 0 -5 -66 -95 -147 -200 -81 -106
-192 -251 -248 -323 -408 -536 -471 -615 -489 -620 -12 -2 -106 -3 -211 -2
l-190 3 -3 743 -2 742 573 0 574 0 16 -82z m-2544 -573 c89 -115 250 -327 359
-469 108 -143 214 -280 235 -305 20 -25 37 -49 37 -53 0 -9 -494 -11 -527 -2
-13 4 -23 14 -23 24 0 34 -79 176 -124 223 -25 26 -70 63 -100 81 -55 36 -159
76 -196 76 -20 0 -20 5 -20 289 l0 288 58 12 c31 7 73 20 92 31 19 11 38 18
42 17 3 -1 79 -96 167 -212z m2852 191 c30 -14 71 -28 92 -31 l37 -7 0 -288 0
-288 -44 -6 c-80 -12 -184 -71 -255 -144 -63 -64 -120 -158 -136 -224 -10 -37
-26 -39 -313 -36 l-242 3 271 355 c149 195 328 430 398 522 69 93 129 168 132
168 4 0 31 -11 60 -24z m-3115 -796 c111 -55 190 -166 210 -295 7 -51 -19
-167 -51 -220 -61 -105 -180 -176 -306 -183 -183 -11 -326 91 -380 270 -19 63
-20 77 -10 140 26 158 136 280 287 318 72 17 180 5 250 -30z m3467 2 c80 -38
142 -100 181 -182 28 -58 31 -75 31 -155 0 -82 -3 -97 -33 -157 -37 -75 -104
-142 -179 -179 -41 -21 -63 -24 -153 -24 -95 0 -110 3 -157 27 -144 77 -221
208 -211 364 17 259 286 418 521 306z m-2318 -567 c80 -108 145 -197 145 -199
0 -2 -21 -19 -47 -38 -27 -19 -59 -51 -73 -71 -14 -20 -29 -37 -34 -37 -5 0
-79 39 -165 87 -147 81 -634 354 -638 357 -1 0 4 22 10 49 l10 47 324 0 323 0
145 -195z m353 33 l-3 -163 -31 -3 c-30 -3 -38 5 -153 158 -66 88 -121 163
-121 165 0 3 70 5 155 5 l155 0 -2 -162z m445 149 c-4 -7 -60 -82 -123 -165
-107 -141 -117 -152 -147 -152 l-33 0 0 149 c0 82 3 156 6 165 5 14 29 16 156
16 121 0 147 -2 141 -13z m855 -34 c6 -26 10 -48 9 -49 -1 -1 -45 -25 -97 -55
-52 -29 -124 -69 -160 -89 -36 -20 -168 -94 -295 -164 -126 -71 -235 -133
-241 -138 -8 -6 -25 6 -50 35 -22 24 -58 59 -82 77 -37 29 -41 36 -30 51 7 10
75 99 151 198 l138 181 324 0 323 0 10 -47z m275 -378 c40 -20 92 -39 117 -43
l45 -8 3 -305 2 -306 -55 -11 c-126 -26 -242 -104 -312 -211 l-39 -59 -244
132 c-135 73 -303 165 -375 204 l-129 72 -3 112 c-1 62 -3 128 -5 147 l-3 34
185 102 c223 122 384 211 505 280 l90 51 73 -78 c56 -59 92 -87 145 -113z
m-2560 57 c128 -71 306 -168 395 -217 l164 -88 -8 -31 c-4 -17 -8 -80 -9 -139
l-1 -108 -100 -56 c-54 -31 -137 -77 -184 -103 -47 -26 -167 -92 -267 -148
-101 -56 -187 -102 -191 -102 -5 0 -23 22 -41 49 -67 104 -188 187 -309 212
l-62 13 2 305 3 304 60 16 c94 26 164 69 240 148 39 39 71 72 73 72 2 1 107
-57 235 -127z m1222 -141 c74 -37 136 -100 174 -181 22 -47 26 -68 26 -150 0
-85 -3 -101 -29 -153 -36 -71 -108 -140 -184 -175 -49 -23 -70 -27 -152 -27
-82 0 -103 4 -152 27 -79 37 -142 98 -181 177 -29 60 -32 74 -32 161 0 83 3
102 27 150 43 88 123 160 211 192 82 29 208 20 292 -21z m-601 -608 c8 -16 41
-54 75 -86 64 -61 151 -109 239 -129 l52 -13 0 -102 0 -103 -575 0 c-563 0
-575 0 -575 19 0 20 106 83 555 331 83 46 159 89 170 96 29 20 43 17 59 -13z
m1301 -201 c371 -204 355 -194 355 -214 0 -17 -34 -18 -575 -18 l-576 0 3 101
3 102 60 17 c33 9 76 24 95 32 59 26 143 95 184 152 l39 54 61 -33 c34 -18
192 -105 351 -193z m-2484 68 c103 -32 176 -100 228 -210 21 -46 26 -69 26
-140 0 -75 -4 -93 -32 -152 -39 -82 -98 -142 -183 -182 -59 -28 -74 -31 -165
-31 -87 0 -107 3 -155 26 -185 88 -263 299 -181 484 79 179 273 265 462 205z
m3499 -10 c118 -60 178 -126 211 -231 56 -181 -26 -366 -200 -448 -49 -23 -69
-26 -156 -26 -91 0 -105 3 -158 29 -72 37 -150 118 -185 193 -22 48 -26 72
-27 143 0 72 4 94 28 145 37 79 68 118 125 157 77 53 134 69 232 65 63 -3 97
-10 130 -27z m-1950 -634 l0 -194 -32 -7 c-71 -16 -143 -49 -206 -97 l-67 -51
-45 26 c-25 15 -219 124 -431 243 -250 141 -386 222 -383 231 14 46 -23 43
589 43 l575 0 0 -194z m1296 169 c4 -14 5 -27 3 -29 -2 -1 -188 -108 -414
-236 -225 -128 -418 -238 -427 -244 -14 -8 -23 -5 -45 16 -60 57 -164 109
-243 121 l-25 4 -3 196 -2 197 575 0 575 0 6 -25z m-2096 -405 c223 -127 405
-234 405 -238 -1 -4 -11 -38 -23 -76 -39 -122 -25 -277 36 -390 62 -114 222
-233 340 -252 l42 -7 0 -188 c0 -104 -3 -189 -7 -188 -5 0 -126 154 -269 342
-495 647 -885 1152 -913 1182 -37 40 -49 60 -30 53 8 -3 196 -110 419 -238z
m2141 213 c-11 -16 -71 -94 -133 -174 -62 -81 -261 -340 -443 -575 -181 -236
-367 -479 -415 -539 -47 -61 -110 -143 -140 -183 -30 -39 -58 -72 -63 -72 -4
0 -6 82 -5 181 l3 182 54 14 c187 47 347 218 382 408 13 70 5 166 -20 239 -10
28 -20 57 -22 65 -2 8 18 26 51 45 30 18 179 103 330 189 151 86 307 176 345
201 83 52 105 58 76 19z m-1206 -324 c33 -6 75 -19 95 -29 66 -34 138 -108
172 -178 29 -59 33 -76 33 -147 0 -71 -4 -89 -32 -146 -39 -79 -102 -140 -181
-177 -49 -23 -70 -27 -152 -27 -88 0 -101 3 -162 33 -75 36 -133 95 -169 170
-34 71 -38 198 -9 274 42 112 158 208 277 228 68 11 64 11 128 -1z m30 -1433
c99 -26 195 -109 242 -211 24 -51 28 -73 28 -145 0 -74 -4 -93 -29 -144 -77
-157 -246 -240 -411 -201 -85 19 -138 49 -194 110 -69 75 -86 123 -86 240 0
117 17 165 86 240 98 106 231 147 364 111z"/>
</g>
</svg>
